<svg width="50" height="40" viewBox="0 10 50 40" fill="none" xmlns="http://www.w3.org/2000/svg">
	<style>
	  svg:hover > rect {
	    transition: fill 0.4s;
			fill: #FF5300;
		}

		svg:hover > path {
			transition: fill 0.4s;
			fill: white;
		}
	</style>
<rect x="10" y="9" width="40" height="40" fill="white"/>
<path d="M40.162 22.656C39.3986 22.9937 38.589 23.2155 37.76 23.314C38.6337 22.7914 39.2877 21.969 39.6 21C38.78 21.488 37.881 21.83 36.944 22.015C36.3146 21.3416 35.4804 20.895 34.5709 20.7446C33.6615 20.5942 32.7279 20.7485 31.9153 21.1835C31.1026 21.6184 30.4564 22.3097 30.0771 23.1498C29.6978 23.9899 29.6067 24.9318 29.818 25.829C28.1551 25.7457 26.5283 25.3135 25.0433 24.5607C23.5582 23.8078 22.2481 22.7511 21.198 21.459C20.8263 22.0975 20.6309 22.8232 20.632 23.562C20.632 25.012 21.37 26.293 22.492 27.043C21.828 27.0221 21.1786 26.8428 20.598 26.52V26.572C20.5982 27.5377 20.9324 28.4736 21.5438 29.2211C22.1553 29.9685 23.0065 30.4815 23.953 30.673C23.3366 30.84 22.6903 30.8647 22.063 30.745C22.3299 31.5762 22.85 32.3032 23.5506 32.8241C24.2512 33.345 25.0971 33.6338 25.97 33.65C25.1025 34.3313 24.1092 34.835 23.0469 35.1322C21.9846 35.4294 20.8741 35.5143 19.779 35.382C21.6907 36.6114 23.9161 37.2641 26.189 37.262C33.882 37.262 38.089 30.889 38.089 25.362C38.089 25.182 38.084 25 38.076 24.822C38.8949 24.2302 39.6016 23.497 40.163 22.657L40.162 22.656Z" fill="#FF5300"/>
</svg>